HIERARCHY
ROOT hip
{
  OFFSET 0 0 0
  CHANNELS 6 Xposition Yposition Zposition Zrotation Yrotation Xrotation
  JOINT abdomen
  {
    OFFSET 0 20.6881 -0.73152
    CHANNELS 3 Zrotation Xrotation Yrotation
    JOINT chest
    {
      OFFSET 0 11.7043 -0.48768
      CHANNELS 3 Zrotation Xrotation Yrotation
      JOINT neck
      {
        OFFSET 0 22.1894 -2.19456
        CHANNELS 3 Zrotation Xrotation Yrotation
        JOINT head
        {
          OFFSET -0.24384 7.07133 1.2192
          CHANNELS 3 Zrotation Xrotation Yrotation
          JOINT leftEye
          {
            OFFSET 4.14528 8.04674 8.04672
            CHANNELS 3 Zrotation Xrotation Yrotation
            End Site
            {
              OFFSET 1 0 0
            }
          }
          JOINT rightEye
          {
            OFFSET -3.6576 8.04674 8.04672
            CHANNELS 3 Zrotation Xrotation Yrotation
            End Site
            {
              OFFSET 1 0 0
            }
          }
        }
      }
      JOINT rCollar
      {
        OFFSET -2.68224 19.2634 -4.8768
        CHANNELS 3 Zrotation Xrotation Yrotation
        JOINT rShldr
        {
          OFFSET -8.77824 -1.95073 1.46304
          CHANNELS 3 Zrotation Xrotation Yrotation
          JOINT rForeArm
          {
            OFFSET -28.1742 -1.7115 0.48768
            CHANNELS 3 Zrotation Xrotation Yrotation
            JOINT rHand
            {
              OFFSET -22.5879 0.773209 7.07136
              CHANNELS 3 Zrotation Xrotation Yrotation
              JOINT rThumb1
              {
                OFFSET -1.2192 -0.487915 3.41376
                CHANNELS 3 Zrotation Xrotation Yrotation
                JOINT rThumb2
                {
                  OFFSET -3.37035 -0.52449 3.41376
                  CHANNELS 3 Zrotation Xrotation Yrotation
                  End Site
                  {
                    OFFSET -1.78271 -1.18214 1.43049
                  }
                }
              }
              JOINT rIndex1
              {
                OFFSET -7.75947 0.938293 5.60832
                CHANNELS 3 Zrotation Xrotation Yrotation
                JOINT rIndex2
                {
                  OFFSET -2.54057 -0.884171 1.56538
                  CHANNELS 3 Zrotation Xrotation Yrotation
                  End Site
                  {
                    OFFSET -1.62519 -0.234802 1.16502
                  }
                }
              }
              JOINT rMid1
              {
                OFFSET -8.24714 1.18213 3.41376
                CHANNELS 3 Zrotation Xrotation Yrotation
                JOINT rMid2
                {
                  OFFSET -3.10165 -0.590103 1.0647
                  CHANNELS 3 Zrotation Xrotation Yrotation
                  End Site
                  {
                    OFFSET -2.48547 -0.328903 0.83742
                  }
                }
              }
              JOINT rRing1
              {
                OFFSET -8.82822 0.546677 1.51678
                CHANNELS 3 Zrotation Xrotation Yrotation
                JOINT rRing2
                {
                  OFFSET -2.60934 -0.819778 -0.0198488
                  CHANNELS 3 Zrotation Xrotation Yrotation
                  End Site
                  {
                    OFFSET -2.33842 -0.294052 0.168128
                  }
                }
              }
              JOINT rPinky1
              {
                OFFSET -8.27202 -0.0477905 -0.4584
                CHANNELS 3 Zrotation Xrotation Yrotation
                JOINT rPinky2
                {
                  OFFSET -1.82734 -0.647385 -0.700984
                  CHANNELS 3 Zrotation Xrotation Yrotation
                  End Site
                  {
                    OFFSET -1.69225 -0.51767 -0.607171
                  }
                }
              }
            }
          }
        }
      }
      JOINT lCollar
      {
        OFFSET 2.68224 19.2634 -4.8768
        CHANNELS 3 Zrotation Xrotation Yrotation
        JOINT lShldr
        {
          OFFSET 8.77824 -1.95073 1.46304
          CHANNELS 3 Zrotation Xrotation Yrotation
          JOINT lForeArm
          {
            OFFSET 28.1742 -1.7115 0.48768
            CHANNELS 3 Zrotation Xrotation Yrotation
            JOINT lHand
            {
              OFFSET 22.5879 0.773209 7.07136
              CHANNELS 3 Zrotation Xrotation Yrotation
              JOINT lThumb1
              {
                OFFSET 1.2192 -0.487915 3.41376
                CHANNELS 3 Zrotation Xrotation Yrotation
                JOINT lThumb2
                {
                  OFFSET 3.37035 -0.52449 3.41376
                  CHANNELS 3 Zrotation Xrotation Yrotation
                  End Site
                  {
                    OFFSET 1.78271 -1.18214 1.43049
                  }
                }
              }
              JOINT lIndex1
              {
                OFFSET 7.75947 0.938293 5.60832
                CHANNELS 3 Zrotation Xrotation Yrotation
                JOINT lIndex2
                {
                  OFFSET 2.54057 -0.884171 1.56538
                  CHANNELS 3 Zrotation Xrotation Yrotation
                  End Site
                  {
                    OFFSET 1.62519 -0.234802 1.16502
                  }
                }
              }
              JOINT lMid1
              {
                OFFSET 8.24714 1.18213 3.41376
                CHANNELS 3 Zrotation Xrotation Yrotation
                JOINT lMid2
                {
                  OFFSET 3.10165 -0.590103 1.0647
                  CHANNELS 3 Zrotation Xrotation Yrotation
                  End Site
                  {
                    OFFSET 2.48547 -0.328903 0.83742
                  }
                }
              }
              JOINT lRing1
              {
                OFFSET 8.82822 0.546677 1.51678
                CHANNELS 3 Zrotation Xrotation Yrotation
                JOINT lRing2
                {
                  OFFSET 2.60934 -0.819778 -0.0198488
                  CHANNELS 3 Zrotation Xrotation Yrotation
                  End Site
                  {
                    OFFSET 2.33842 -0.294052 0.168128
                  }
                }
              }
              JOINT lPinky1
              {
                OFFSET 8.27202 -0.0477905 -0.4584
                CHANNELS 3 Zrotation Xrotation Yrotation
                JOINT lPinky2
                {
                  OFFSET 1.82734 -0.647385 -0.700984
                  CHANNELS 3 Zrotation Xrotation Yrotation
                  End Site
                  {
                    OFFSET 1.69225 -0.51767 -0.607171
                  }
                }
              }
            }
          }
        }
      }
    }
  }
  JOINT rButtock
  {
    OFFSET -8.77824 4.35084 1.2192
    CHANNELS 3 Zrotation Xrotation Yrotation
    JOINT rThigh
    {
      OFFSET 0 -1.70687 -2.19456
      CHANNELS 3 Zrotation Xrotation Yrotation
      JOINT rShin
      {
        OFFSET 0 -36.8199 0.73152
        CHANNELS 3 Zrotation Xrotation Yrotation
        JOINT rFoot
        {
          OFFSET 0.73152 -45.1104 -5.12064
          CHANNELS 3 Zrotation Xrotation Yrotation
          End Site
          {
            OFFSET -1.1221 -3.69964 12.103
          }
        }
      }
    }
  }
  JOINT lButtock
  {
    OFFSET 8.77824 4.35084 1.2192
    CHANNELS 3 Zrotation Xrotation Yrotation
    JOINT lThigh
    {
      OFFSET 0 -1.70687 -2.19456
      CHANNELS 3 Zrotation Xrotation Yrotation
      JOINT lShin
      {
        OFFSET 0 -36.8199 0.73152
        CHANNELS 3 Zrotation Xrotation Yrotation
        JOINT lFoot
        {
          OFFSET -0.73152 -45.1104 -5.12064
          CHANNELS 3 Zrotation Xrotation Yrotation
          End Site
          {
            OFFSET 1.1221 -3.69964 12.103
          }
        }
      }
    }
  }
}
MOTION
Frames:	9
Frame Time:	0.00833333
-79.1929 85.1887 0.0253817 0.0 0.0 0.0 0.559351 -0.00286671 0.0159889 0.154366 -0.00442833 0.0267461 -1.34319e-14 0.0 -9.93924e-17 -4.04713e-14 3.18055e-15 -3.12154e-16 -0.0 0.0 0.0 -0.0 0.0 0.0 -6.76021e-15 3.49426e-18 9.93923e-17 -1.39619e-13 1.2424e-16 -9.93923e-16 -2.44237e-12 7.31528e-13 -9.54166e-15 -2.79607e-11 -7.34236e-13 -2.48083e-13 -6.59561e-11 -1.01329e-14 -5.47055e-13 -1.13914e-10 -2.22639e-14 -9.47805e-13 -6.59536e-11 -1.15295e-14 -5.47055e-13 7.73091 5.47488 0.417314 -6.59566e-11 -1.03368e-14 -5.40694e-13 2.90554 0.965183 0.102902 -6.59456e-11 -1.02374e-14 -5.4626e-13 10.2786 0.731801 0.0259123 -6.59643e-11 -6.75868e-15 -5.40694e-13 2.22167 -0.733487 -0.20892 -6.85698e-15 2.71776e-18 -1.98785e-16 -1.43141e-13 -9.93923e-17 -2.5842e-15 -2.44595e-12 -7.3113e-13 2.8625e-14 -2.79569e-11 7.34311e-13 -2.73528e-13 -6.5951e-11 4.6616e-15 -5.47055e-13 -1.13888e-10 9.54166e-15 -9.39059e-13 -6.59556e-11 3.97569e-15 -5.37514e-13 -7.73091 5.47488 -0.417314 -6.59501e-11 4.77083e-15 -5.43875e-13 -2.90554 0.965183 -0.102902 -6.59543e-11 4.57205e-15 -5.47851e-13 -10.2786 0.731801 -0.0259123 -6.59486e-11 8.34896e-15 -5.50236e-13 -2.22167 -0.733487 0.20892 -2.03217e-16 0.0 -3.88251e-19 0.922989 -4.50513 -0.0770314 -0.00206827 2.60853 -0.0096294 -0.502456 1.89677 0.0959413 2.03217e-16 0.0 3.88251e-19 -0.0712508 -2.35216 0.0224558 0.00807199 -1.29119 0.0691989 0.494621 3.64342 -0.130519
-75.9208 84.2391 -3.01147 -92.5056 86.0758 -86.221 1.49728 -2.36139 2.3323 -0.720806 1.82488 0.709551 0.0850537 1.4949 -0.82383 -0.236868 -4.89951 -1.68512 -0.0 0.0 0.0 -0.0 0.0 0.0 -3.90682e-14 2.08088e-13 8.33925e-14 24.2919 6.39231 0.0683999 -7.09587 -4.11861 9.94086 0.0534421 5.13328 0.711028 -5.27805e-10 9.86129e-11 -8.98437e-11 -9.11795e-10 1.7025e-10 -1.51803e-10 -5.27798e-10 9.86124e-11 -8.98559e-11 7.73091 5.47488 0.417314 -5.27806e-10 9.86131e-11 -8.98419e-11 2.90554 0.965183 0.102902 -5.27795e-10 9.8614e-11 -8.98463e-11 10.2786 0.731801 0.0259123 -5.27811e-10 9.86163e-11 -8.98424e-11 2.22167 -0.733487 -0.20892 -3.91787e-14 2.08085e-13 8.30772e-14 -22.2377 12.13 -4.20995 6.30434 -3.45291 -9.12453 -0.0269282 -3.64149 0.508051 -2.44372e-10 -1.46673e-09 2.90708e-11 -4.1537e-10 -2.53743e-09 4.69151e-11 -2.44377e-10 -1.46673e-09 2.90802e-11 -7.73091 5.47488 -0.417314 -2.44372e-10 -1.46673e-09 2.9073e-11 -2.90554 0.965183 -0.102902 -2.44375e-10 -1.46673e-09 2.90688e-11 -10.2786 0.731801 -0.0259123 -2.44369e-10 -1.46672e-09 2.90656e-11 -2.22167 -0.733487 0.20892 -2.03217e-16 0.0 -3.88251e-19 1.3166 -9.68165 1.17982 -0.000316925 6.58635 0.0675958 -0.743837 -1.04453 -2.99065 2.03217e-16 0.0 3.88251e-19 1.58904 -5.44149 0.386391 0.00071678 1.26462 0.00454373 0.575506 -1.476 1.2471
-75.5978 84.4526 -2.64759 -63.5782 85.1675 -55.6154 2.67992 -4.82494 4.77964 -1.68562 3.75824 1.42963 0.221408 3.07849 -1.69239 -0.802492 -10.0688 -3.49917 -0.0 0.0 0.0 -0.0 0.0 0.0 -7.37088e-14 4.53417e-13 1.75558e-13 49.9569 13.1166 0.13682 -13.0524 -8.04726 20.5951 -0.0308637 10.5719 1.48397 -1.03363e-09 2.06952e-10 -1.94342e-10 -1.78568e-09 3.57291e-10 -3.28668e-10 -1.03361e-09 2.06953e-10 -1.94367e-10 7.73091 5.47488 0.417314 -1.03363e-09 2.06953e-10 -1.94345e-10 2.90554 0.965183 0.102902 -1.03362e-09 2.06955e-10 -1.94348e-10 10.2786 0.731801 0.0259123 -1.03363e-09 2.06956e-10 -1.94346e-10 2.22167 -0.733487 -0.20892 -7.38378e-14 4.53411e-13 1.75222e-13 -43.6216 24.7331 -9.33563 11.773 -6.79725 -18.8549 0.015388 -7.49367 1.0525 -4.50517e-10 -3.08871e-09 6.4309e-11 -7.64078e-10 -5.34346e-09 1.0409e-10 -4.50522e-10 -3.08872e-09 6.43182e-11 -7.73091 5.47488 -0.417314 -4.50517e-10 -3.08871e-09 6.43102e-11 -2.90554 0.965183 -0.102902 -4.50519e-10 -3.08871e-09 6.43057e-11 -10.2786 0.731801 -0.0259123 -4.50514e-10 -3.08871e-09 6.43017e-11 -2.22167 -0.733487 0.20892 -2.03217e-16 0.0 -3.88251e-19 1.97819 -15.1519 2.56843 -0.0104205 10.8194 0.151613 -1.34759 -4.13739 -6.28811 2.03217e-16 0.0 3.88251e-19 3.37943 -8.69105 0.752813 -0.00082417 3.96322 -0.0641918 0.924288 -6.94776 2.67727
-75.6862 84.699 -2.19709 -63.0138 84.5939 -53.4121 3.94734 -7.03186 7.01198 -2.60244 5.48031 2.08361 0.38442 4.48099 -2.47823 -1.59863 -14.6468 -5.20652 -0.0 0.0 0.0 -0.0 0.0 0.0 -1.03684e-13 6.24258e-13 2.49979e-13 72.8276 19.1768 0.215905 -17.152 -10.8691 30.3447 -0.23389 15.3902 2.20358 -1.4515e-09 2.95859e-10 -2.68437e-10 -2.50756e-09 5.10793e-10 -4.53513e-10 -1.45149e-09 2.9586e-10 -2.68473e-10 7.73091 5.47488 0.417314 -1.4515e-09 2.9586e-10 -2.68444e-10 2.90554 0.965183 0.102902 -1.4515e-09 2.95862e-10 -2.68446e-10 10.2786 0.731801 0.0259123 -1.4515e-09 2.95862e-10 -2.68446e-10 2.22167 -0.733487 -0.20892 -1.03822e-13 6.2425e-13 2.49629e-13 -60.3847 35.5115 -15.2304 15.7172 -9.30956 -27.7193 0.11597 -10.921 1.54914 -6.01213e-10 -4.40019e-09 8.83065e-11 -1.01833e-09 -7.61232e-09 1.42623e-10 -6.01219e-10 -4.40019e-09 8.83156e-11 -7.73091 5.47488 -0.417314 -6.01214e-10 -4.40019e-09 8.83068e-11 -2.90554 0.965183 -0.102902 -6.01215e-10 -4.40019e-09 8.83021e-11 -10.2786 0.731801 -0.0259123 -6.0121e-10 -4.40019e-09 8.82974e-11 -2.22167 -0.733487 0.20892 -2.03217e-16 0.0 -3.88251e-19 2.82401 -19.9985 3.8767 -0.0299241 14.5419 0.227992 -2.17822 -6.84255 -9.22852 2.03217e-16 0.0 3.88251e-19 5.0296 -11.6183 1.13228 0.00336468 6.37624 -0.125511 1.48638 -11.687 4.08539
-75.6747 84.8392 -1.95287 -56.6594 84.5078 -45.6285 5.03332 -8.63939 8.66424 -3.30767 6.6771 2.56444 0.523194 5.43423 -3.05082 -2.34213 -17.7949 -6.50457 -0.0 0.0 0.0 -0.0 0.0 0.0 -1.21996e-13 6.08882e-13 2.80038e-13 88.7391 23.5769 0.314334 -19.4413 -12.3249 37.3401 -0.447372 18.6671 2.72145 -1.64952e-09 3.36185e-10 -2.66524e-10 -2.84939e-09 5.80445e-10 -4.4831e-10 -1.6495e-09 3.36186e-10 -2.66565e-10 7.73091 5.47488 0.417314 -1.64952e-09 3.36186e-10 -2.66534e-10 2.90554 0.965183 0.102902 -1.64951e-09 3.36188e-10 -2.66534e-10 10.2786 0.731801 0.0259123 -1.64952e-09 3.36188e-10 -2.66534e-10 2.22167 -0.733487 -0.20892 -1.22119e-13 6.08873e-13 2.7969e-13 -70.3866 42.5529 -20.5934 18.0334 -10.7227 -34.0952 0.221628 -13.2895 1.90229 -6.13287e-10 -4.93539e-09 8.4202e-11 -1.03647e-09 -8.53824e-09 1.34552e-10 -6.13293e-10 -4.9354e-09 8.42115e-11 -7.73091 5.47488 -0.417314 -6.13288e-10 -4.9354e-09 8.4202e-11 -2.90554 0.965183 -0.102902 -6.1329e-10 -4.9354e-09 8.41972e-11 -10.2786 0.731801 -0.0259123 -6.13283e-10 -4.93539e-09 8.41925e-11 -2.22167 -0.733487 0.20892 -2.03217e-16 0.0 -3.88251e-19 3.60224 -23.3199 4.81934 -0.048408 16.9882 0.279667 -2.89194 -8.6664 -11.205 2.03217e-16 0.0 3.88251e-19 6.25777 -13.7411 1.53128 0.00953656 8.07531 -0.16738 2.06922 -14.6196 5.34723
-75.6129 84.9333 -1.68746 -55.6433 84.2224 -44.2384 5.71109 -9.45559 9.5131 -3.7035 7.13408 2.80897 0.603271 5.74669 -3.3176 -2.73467 -18.9475 -7.12552 -0.0 0.0 0.0 -0.0 0.0 0.0 -1.20856e-13 3.43952e-13 2.46182e-13 94.9484 25.6826 0.425799 -20.2918 -12.834 40.2888 -0.537554 19.7679 2.90276 -1.57313e-09 3.00165e-10 -1.69802e-10 -2.71736e-09 5.18343e-10 -2.80023e-10 -1.57311e-09 3.00166e-10 -1.69839e-10 7.73091 5.47488 0.417314 -1.57313e-09 3.00166e-10 -1.6981e-10 2.90554 0.965183 0.102902 -1.57312e-09 3.00168e-10 -1.6981e-10 10.2786 0.731801 0.0259123 -1.57313e-09 3.00168e-10 -1.69806e-10 2.22167 -0.733487 -0.20892 -1.20917e-13 3.43943e-13 2.4586e-13 -73.9955 45.1189 -23.0322 18.9418 -11.2797 -36.8551 0.268794 -14.1546 2.03395 -4.32128e-10 -4.2404e-09 2.1813e-11 -7.25964e-10 -7.33614e-09 2.83979e-11 -4.32134e-10 -4.2404e-09 2.18242e-11 -7.73091 5.47488 -0.417314 -4.32129e-10 -4.2404e-09 2.18138e-11 -2.90554 0.965183 -0.102902 -4.32133e-10 -4.2404e-09 2.18092e-11 -10.2786 0.731801 -0.0259123 -4.32122e-10 -4.2404e-09 2.18054e-11 -2.22167 -0.733487 0.20892 -2.03217e-16 0.0 -3.88251e-19 4.02871 -24.5444 5.14323 -0.0539921 17.6266 0.292573 -3.13692 -9.31725 -11.7715 2.03217e-16 0.0 3.88251e-19 6.8623 -14.7621 2.00755 0.0128836 8.75579 -0.180306 2.43074 -14.9188 6.38608
-75.5313 85.01 -1.42039 -55.2152 84.0267 -43.6568 6.05026 -9.71552 9.77654 -3.8666 7.06357 2.88245 0.630774 5.60289 -3.36476 -2.79783 -18.6876 -7.23055 -0.0 0.0 0.0 -0.0 0.0 0.0 -1.0597e-13 -9.9761e-14 1.66759e-13 94.2331 26.1481 0.543545 -20.3346 -12.9468 40.3074 -0.508654 19.3173 2.83008 -1.29914e-09 2.10011e-10 -4.8072e-12 -2.24408e-09 3.62816e-10 5.65627e-12 -1.29913e-09 2.1001e-10 -4.83147e-12 7.73091 5.47488 0.417314 -1.29915e-09 2.10011e-10 -4.81098e-12 2.90554 0.965183 0.102902 -1.29914e-09 2.10011e-10 -4.80965e-12 10.2786 0.731801 0.0259123 -1.29915e-09 2.10013e-10 -4.80066e-12 2.22167 -0.733487 -0.20892 -1.05935e-13 -9.97687e-14 1.66479e-13 -73.9864 44.7567 -22.6182 19.0301 -11.4276 -36.9979 0.259128 -13.9478 2.00266 -1.12904e-10 -2.67351e-09 -8.13057e-11 -1.80629e-10 -4.62581e-09 -1.46251e-10 -1.12911e-10 -2.67352e-09 -8.12922e-11 -7.73091 5.47488 -0.417314 -1.12904e-10 -2.67352e-09 -8.13035e-11 -2.90554 0.965183 -0.102902 -1.12913e-10 -2.67352e-09 -8.13078e-11 -10.2786 0.731801 -0.0259123 -1.12897e-10 -2.67351e-09 -8.13099e-11 -2.22167 -0.733487 0.20892 -2.03217e-16 0.0 -3.88251e-19 4.14392 -24.2767 4.99407 -0.0483129 16.9746 0.277009 -2.98432 -9.14656 -11.3168 2.03217e-16 0.0 3.88251e-19 7.00941 -14.9947 2.53255 0.0129538 8.70963 -0.172363 2.52779 -13.3532 7.23372
-75.4478 85.0612 -1.19092 -53.594 83.9428 -41.9533 6.21095 -9.72591 9.74277 -3.89084 6.79255 2.86873 0.611421 5.29947 -3.32856 -2.68992 -17.9096 -7.12817 -0.0 0.0 0.0 -0.0 0.0 0.0 -9.0584e-14 -6.32828e-13 7.20024e-14 90.7077 25.9096 0.67528 -20.0503 -12.8953 39.1034 -0.438079 18.286 2.66392 -8.92684e-10 1.11532e-10 2.0606e-10 -1.54121e-09 1.92899e-10 3.68668e-10 -8.9268e-10 1.11531e-10 2.06049e-10 7.73091 5.47488 0.417314 -8.92685e-10 1.11532e-10 2.06061e-10 2.90554 0.965183 0.102902 -8.92682e-10 1.11531e-10 2.06063e-10 10.2786 0.731801 0.0259123 -8.92692e-10 1.11534e-10 2.06077e-10 2.22167 -0.733487 -0.20892 -9.04627e-14 -6.32834e-13 7.17686e-14 -72.5459 43.2203 -21.0204 18.7885 -11.4088 -36.0469 0.228838 -13.3494 1.91201 2.62886e-10 -9.87349e-10 -1.7041e-10 4.61742e-10 -1.7089e-09 -2.95762e-10 2.62877e-10 -9.87351e-10 -1.70394e-10 -7.73091 5.47488 -0.417314 2.62886e-10 -9.87349e-10 -1.70406e-10 -2.90554 0.965183 -0.102902 2.62873e-10 -9.8735e-10 -1.7041e-10 -10.2786 0.731801 -0.0259123 2.62893e-10 -9.87346e-10 -1.70411e-10 -2.22167 -0.733487 0.20892 -2.03217e-16 0.0 -3.88251e-19 4.14066 -23.3881 4.65016 -0.0392704 15.8407 0.251132 -2.68643 -8.64905 -10.4659 2.03217e-16 0.0 3.88251e-19 6.96533 -14.873 2.98117 0.0118756 8.40335 -0.15756 2.46349 -11.2468 7.9077
-75.3904 85.1072 -0.966027 -52.2219 83.9147 -40.4419 6.36973 -9.78955 9.70387 -3.87258 6.64775 2.85197 0.551728 5.13299 -3.34523 -2.57965 -17.5056 -7.12962 -0.0 0.0 0.0 -0.0 0.0 0.0 -8.79435e-14 -1.16582e-12 -7.85199e-15 88.4785 25.9033 0.832598 -19.8811 -12.863 38.3921 -0.397729 17.6447 2.56214 -4.18867e-10 5.05422e-11 4.40399e-10 -7.20424e-10 8.76306e-11 7.68953e-10 -4.18866e-10 5.05394e-11 4.40395e-10 7.73091 5.47488 0.417314 -4.18869e-10 5.05402e-11 4.40402e-10 2.90554 0.965183 0.102902 -4.18866e-10 5.05386e-11 4.40404e-10 10.2786 0.731801 0.0259123 -4.18878e-10 5.05422e-11 4.40421e-10 2.22167 -0.733487 -0.20892 -8.77879e-14 -1.16582e-12 -8.05078e-15 -71.8414 42.2584 -19.9232 18.6669 -11.4221 -35.5339 0.213197 -13.0399 1.86527 6.13743e-10 6.54971e-11 -1.90754e-10 1.06335e-09 1.12992e-10 -3.265e-10 6.13734e-10 6.54964e-11 -1.90738e-10 -7.73091 5.47488 -0.417314 6.13743e-10 6.54974e-11 -1.90751e-10 -2.90554 0.965183 -0.102902 6.13729e-10 6.54972e-11 -1.90754e-10 -10.2786 0.731801 -0.0259123 6.13751e-10 6.55011e-11 -1.90754e-10 -2.22167 -0.733487 0.20892 -2.03217e-16 0.0 -3.88251e-19 4.20616 -22.7504 4.38732 -0.0334572 15.0335 0.232579 -2.48211 -8.32431 -9.84142 2.03217e-16 0.0 3.88251e-19 7.01198 -14.8317 3.23265 0.0116483 8.30345 -0.149892 2.42143 -9.91337 8.42965
